<?xml version="1.0" encoding="utf-8"?>
<!-- Generator: Adobe Illustrator 20.1.0, SVG Export Plug-In . SVG Version: 6.00 Build 0)  -->
<svg version="1.1" id="Layer_2" xmlns="http://www.w3.org/2000/svg" xmlns:xlink="http://www.w3.org/1999/xlink" x="0px" y="0px"
	 viewBox="0 0 400 133" style="enable-background:new 0 0 400 133;" xml:space="preserve">
<style type="text/css">
	.st0{fill:#532E8C;}
</style>
<g>
	<path class="st0" d="M82,116.4c-4.2-1-6.6-0.9-9.4,0.9l0,0l0,0l0,0l0,0c-2.8-1.8-5.3-1.9-9.4-0.9c-4.2,1-6.9-1.3-6.9-1.3
		c0.9,2.5,6.2,12.3,16.3,12.4l0,0l0,0c10-0.1,15.4-9.9,16.3-12.4C88.8,115.1,86.1,117.4,82,116.4z"/>
	<path class="st0" d="M373.6,32.6h-3.2c-11.6,0-21,9.4-21,21v42.1v1.6v2c0,5.8-4.7,10.5-10.5,10.5h-2.1c-5.8,0-10.5-4.7-10.5-10.5
		v-1.7v-0.4V43H343h1.2l0.4-1.1c0.8-2.4,1.9-4.8,3.4-6.9l1.7-2.5h-3.1h-20.2V19.8V19l0,0c-0.4-4.5-4.2-8.1-8.9-8.1l0,0l0,0h-1.6v1.6
		v7.3v12.9c-5.5,0.4-10.7,2.9-14.3,7c-4-4.5-9.7-7.1-15.7-7.1h-3.2c-11.6,0-21,9.4-21,21v2.9c0,12.3,17.2,21.8,18.3,22.4
		c6.3,3.8,16.4,11.3,16.4,15.5v5c0,5.8-4.7,10.5-10.5,10.5h-11c-5.8,0-10.5-4.7-10.5-10.5v-1.6l0,0v-1.6c0-3.1-1.7-6.1-4.5-7.7
		l-0.8-0.5l-0.8,0.5c-2.3,1.3-3.8,3.5-4.3,6h-0.2v1.6v3.2c0,5.8-4.7,10.5-10.5,10.5h-12.2c-5.8,0-10.5-4.7-10.5-10.5v-21h26.7
		c0.2,0,0.4,0,0.8,0c3.5,0,7.2-2.1,7.2-7.9V53.5c0-11.6-9.4-21-21-21h-3.2c-11.8,0-21,9.2-21,21v45.7c0,11.8,9.2,21,21,21h12.2
		c6.1,0,11.8-2.6,15.8-7.1c4,4.5,9.7,7.1,15.7,7.1h11c11.6,0,21-9.4,21-21v-5c0-12.5-18-22.6-18.8-23c-6.1-3.5-15.9-10.7-15.9-14.9
		v-2.9c0-5.8,4.7-10.5,10.5-10.5h3.2c5.8,0,10.5,4.7,10.5,10.5v0.9c0,3.1,1.7,6.1,4.5,7.7l0.8,0.5l0.8-0.5c2.8-1.6,4.5-4.5,4.5-7.7
		v-1.6l0,0c0.4-4.9,4.2-8.9,9-9.6v54.1v0.4v1.7c0,11.6,9.4,21,21,21h2.1c5.7,0,11.2-2.7,15.3-7.5c4,4.8,9.9,7.5,16.1,7.5h3.2
		c11.6,0,21-9.4,21-21V53.6C394.6,42,385.2,32.6,373.6,32.6z M220.6,53.6c0-5.8,4.7-10.5,10.5-10.5h3.2c5.8,0,10.5,4.7,10.5,10.5V68
		h-24.1V53.6H220.6z M384.1,99.4c0,5.8-4.7,10.5-10.5,10.5h-3.2c-5.8,0-10.5-4.7-10.5-10.5v-2V53.7c0-5.8,4.7-10.5,10.5-10.5h3.2
		c5.8,0,10.5,4.7,10.5,10.5V99.4z"/>
	<path class="st0" d="M203.8,34.3c-4.2,0-7.8,3-8.6,7.2l-12.5,67.8c0,0.1,0,0.1,0,0.2s-0.1,0.3-0.1,0.4H182
		c-0.1-0.1-0.1-0.4-0.2-0.5l-12.6-67.6v-0.1v-0.2c0-0.2-0.1-0.4-0.1-0.5v-0.1c-0.1-0.3-0.1-0.5-0.2-0.6c-0.1-0.3-0.2-0.5-0.3-0.7
		c-1.4-3.2-3.9-4.4-5.9-4.9c-0.6-0.2-1.3-0.2-2-0.2c-0.2,0-0.3,0-0.5,0c-0.7,0-1.1,0.1-1.2,0.1l-1.6,0.3l0.3,1.6l14.3,77.8
		c0.6,3.4,4.2,6.3,7.9,6.3h5c3.9,0,7.3-3.3,7.9-6.3l14-76.9l0,0l0,0l0.1-0.9l0.2-1.6l-1.5-0.3C204.9,34.3,204.3,34.3,203.8,34.3z"/>
	<path class="st0" d="M373.6,22.1c4.2,0,8.2,1.3,11.4,3.4l-0.1-0.5c-1.3-5.7-6.2-9.6-12-9.6h-1.8c-5.8,0-10.8,3.9-12,9.6l-0.1,0.6
		c3.3-2.2,7.2-3.4,11.4-3.4h3.2V22.1z"/>
	<path class="st0" d="M79.3,7.9c-1.6-1.9-3.9-3.1-6.5-3.1s-5,1.2-6.5,3.1c-19.9-6.3-38-4.6-49,6.4C0,31.6-0.7,72.4,43.3,116
		c-10.9-19.4-29.9-52.7,9.6-88.3C57,24,61.5,21,66.1,18.4c1.6,2,3.9,3.3,6.7,3.3c2.7,0,5.1-1.3,6.7-3.3c4.6,2.6,9.1,5.6,13.2,9.3
		c39.5,35.6,20.5,68.9,9.6,88.3c44.1-43.6,43.3-84.5,26-101.7C117.2,3.3,99.1,1.7,79.3,7.9z"/>
</g>
</svg>
